<svg version="1" xmlns="http://www.w3.org/2000/svg" width="533.333" height="533.333" viewBox="0 0 400.000000 400.000000"><path d="M390.6 132.4c-.4 1.6-1.5 2.5-3.7 3-1.7.3-25.4.6-52.5.6-32.3 0-49.4.3-49.4 1 0 .5.5 1 1.1 1 3.9 0 3.9.5 3.9 63.3v60.5l-2.9 1.3c-1.6.7-2.7 1.7-2.5 2.1.8 1.2 33.4 1 33.4-.2 0-.6-.6-1-1.3-1-.7 0-2-.9-3-2-1.5-1.8-1.7-4.9-1.7-28.5V207h50.1l2.4 2.5c1.4 1.3 2.5 2.9 2.5 3.5 0 .5.3 1 .8 1 .4 0 .7-7 .7-15.5s-.3-15.5-.7-15.5c-.5 0-.8.5-.8 1 0 .6-1.1 2.2-2.5 3.5l-2.4 2.5H312v-36h36.4c32.9 0 36.7.2 39.5 1.7 1.7 1 3.1 2.3 3.1 3 0 .6.5 1.5 1 1.8.7.4 1-4.8 1-14.9 0-14.3-.9-19.2-2.4-13.2zM8.3 138.1l2.7 2.1v60.5c0 62.8 0 63.3-3.9 63.3-.6 0-1.1.4-1.1 1s6.3 1 17 1 17-.4 17-1-.5-1-1.1-1c-.7 0-2-1-3-2.2-1.7-1.9-1.9-4.1-1.9-25.8v-23.8l30.5-.3c22.6-.3 30.7-.7 31.7-1.7.6-.6 2.3-1.2 3.6-1.2 1.3 0 2-.4 1.7-1-.4-.6.5-1 1.9-1 2.6 0 10.6-6.8 10.6-9 0-.6.9-2 1.9-3.2 1.1-1.1 1.7-2.6 1.4-3.4-.3-.8 0-1.4.6-1.4s1.1-1 1.1-2.3c0-1.3.5-2.8 1.1-3.4.6-.6.9-4.6.6-10.9-.5-11.2-1.5-16.4-2.9-16.4-.6 0-.8-.7-.4-1.5.3-.8.1-1.5-.4-1.5-.6 0-1-.7-1-1.5s-.4-1.5-1-1.5c-.5 0-1-.7-1-1.5 0-1.2-2.3-3.9-6.2-7.1-2.7-2.2-8.2-4.4-10.9-4.4-1.5 0-3.1-.5-3.4-1-.4-.6-16.2-1-44.3-1l-43.7.1 2.8 2zM80.5 155c.6.4 2.9 1 5.2 1.3 4.5.5 7.7 3.1 10.3 8.1 1.4 2.7 2 13.9.9 17.7-.9 3.2-5.9 7.9-8.9 8.5-1.7.4-3.3 1.1-3.6 1.5-.3.5-11.7.9-25.5.9H34v-39.1l22.8.2c12.5 0 23.2.4 23.7.9zM140.4 137.5c4.6 3.5 4.6 3.4 4.6 62.8 0 50-.2 56.4-1.7 59.8-.9 2.1-2.6 4.1-3.7 4.6-3.2 1.2 73.3 1.5 76.8.3 1.6-.5 4.4-1 6.3-1 1.9 0 3.2-.4 2.9-.9-.3-.5 1.6-1.1 4.1-1.4 2.6-.3 4.9-1 5.1-1.6.2-.6 1-1.1 1.7-1.1s2.7-1.2 4.3-2.8c1.7-1.5 3.9-3.4 4.9-4.2 2.1-1.7 8-9.5 7.3-9.5-.3 0 .5-1.3 1.7-2.9 1.3-1.6 2.3-3.5 2.3-4.2 0-.8.4-2.2.9-3.2 3.2-6.1 4.1-12.9 4.1-31.1 0-14.6-.4-20-1.8-25.4-1-3.7-2.1-6.5-2.4-6.2-.3.3-.8-1.2-1.2-3.5-.3-2.2-1-4-1.5-4s-1.2-1.1-1.5-2.5c-.8-3-14-16.5-16.2-16.5-.8 0-1.4-.3-1.4-.8 0-1.1-9.3-4.2-12.8-4.2-1.7 0-3.4-.5-3.7-1-.4-.6-15.1-1-40.8-1-34.8.1-40 .3-38.3 1.5zm72.9 18.5c3.7.7 6.7 1.6 6.7 2.1s.6.9 1.4.9c2 0 11.2 9.6 13.2 13.8 1.9 3.8 2.2 4.9 3.1 9.4.3 1.6.9 2.8 1.4 2.8.5 0 .9 7.2.9 16s-.4 16-.9 16-1.1 1.5-1.5 3.2c-.3 1.8-.7 3.7-.9 4.3-1 2.8-2.2 5.1-3.1 6.2-.6.7-2.4 3-4.1 5.3-1.6 2.2-4 4.2-5.2 4.6-1.3.3-2.3 1-2.3 1.5s-.6.9-1.4.9c-.8 0-1.6.5-1.8 1.1-.2.6-4.1 1.3-8.8 1.6-4.7.2-9.4.9-10.6 1.4-1.1.6-8.4.9-17 .7l-14.9-.3-.3-46.8-.2-46.9 19.7.5c10.9.3 22.8 1.1 26.6 1.7z"/></svg>